<?xml version="1.0" encoding="UTF-8"?>
<!--Generator: Apple Native CoreSVG 341-->
<!DOCTYPE svg
PUBLIC "-//W3C//DTD SVG 1.1//EN"
       "http://www.w3.org/Graphics/SVG/1.1/DTD/svg11.dtd">
<svg version="1.1" xmlns="http://www.w3.org/2000/svg" xmlns:xlink="http://www.w3.org/1999/xlink" viewBox="0 0 294.75 230.625">
 <g>
  <path d="M25.375 230.625L269.375 230.625C284.875 230.625 294.75 220.75 294.75 205.625L294.75 25.25C294.75 10.25 284.875 0.375 269.375 0.375L25.375 0.375C10 0.375 0 10.25 0 25.25L0 205.625C0 220.75 10 230.625 25.375 230.625ZM25.5 210.5C21.5 210.5 18.875 207.75 18.875 204L18.875 189.875C18.875 186.375 21.375 183.875 25 183.875L41.125 183.875C44.75 183.875 47.125 186.375 47.125 189.875L47.125 204.375C47.125 207.875 44.75 210.5 41.125 210.5ZM25 169.125C21.375 169.125 18.875 166.375 18.875 163.125L18.875 148.875C18.875 145.125 21.25 142.75 25 142.75L41.125 142.75C44.75 142.75 47.125 145.125 47.125 148.875L47.125 163.125C47.125 166.375 44.75 169.125 41.125 169.125ZM25 128.625C21.375 128.625 18.875 126 18.875 122.75L18.875 108.5C18.875 104.75 21.25 102.375 25 102.375L41.125 102.375C44.75 102.375 47.125 104.75 47.125 108.5L47.125 122.75C47.125 126 44.75 128.625 41.125 128.625ZM25 88.5C21.375 88.5 18.875 85.75 18.875 82.625L18.875 68.25C18.875 64.625 21.25 62.125 25 62.125L41.125 62.125C44.75 62.125 47.125 64.625 47.125 68.25L47.125 82.625C47.125 85.75 44.75 88.5 41.125 88.5ZM25 47.125C21.375 47.125 18.875 44.5 18.875 41.25L18.875 27.125C18.875 23.125 21.5 20.5 25.5 20.5L41.125 20.5C44.75 20.5 47.125 23 47.125 26.625L47.125 41.25C47.125 44.5 44.75 47.125 41.125 47.125ZM70.75 210.5C67 210.5 64.75 208.25 64.75 204.5L64.75 131.625C64.75 128 67 125.75 70.75 125.75L224.125 125.75C227.75 125.75 230 128 230 131.625L230 204.5C230 208.25 227.75 210.5 224.125 210.5ZM70.75 105.5C67 105.5 64.75 103.375 64.75 99.625L64.75 26.25C64.75 22.5 67 20.5 70.75 20.5L224.125 20.5C227.75 20.5 230 22.5 230 26.25L230 99.625C230 103.375 227.75 105.5 224.125 105.5ZM253.625 210.5C250 210.5 247.625 207.875 247.625 204.375L247.625 189.875C247.625 186.375 250 183.875 253.625 183.875L269.75 183.875C273.5 183.875 275.875 186.375 275.875 189.875L275.875 204C275.875 207.75 273.375 210.5 269.25 210.5ZM253.625 169.125C250 169.125 247.625 166.375 247.625 163.125L247.625 148.875C247.625 145.125 250 142.75 253.625 142.75L269.75 142.75C273.5 142.75 275.875 145.125 275.875 148.875L275.875 163.125C275.875 166.375 273.5 169.125 269.75 169.125ZM253.625 128.625C250 128.625 247.625 126 247.625 122.75L247.625 108.5C247.625 104.75 250 102.375 253.625 102.375L269.75 102.375C273.5 102.375 275.875 104.75 275.875 108.5L275.875 122.75C275.875 126 273.5 128.625 269.75 128.625ZM253.625 88.5C250 88.5 247.625 85.75 247.625 82.625L247.625 68.25C247.625 64.625 250 62.125 253.625 62.125L269.75 62.125C273.5 62.125 275.875 64.625 275.875 68.25L275.875 82.625C275.875 85.75 273.5 88.5 269.75 88.5ZM253.625 47.125C250 47.125 247.625 44.5 247.625 41.25L247.625 26.625C247.625 23 250 20.5 253.625 20.5L269.25 20.5C273.375 20.5 275.875 23.125 275.875 27.125L275.875 41.25C275.875 44.5 273.5 47.125 269.75 47.125Z" fill="white" fill-opacity="0.85"/>
 </g>
</svg>
