<?xml version="1.0" encoding="UTF-8"?>
<!--Generator: Apple Native CoreSVG 341-->
<!DOCTYPE svg
PUBLIC "-//W3C//DTD SVG 1.1//EN"
       "http://www.w3.org/Graphics/SVG/1.1/DTD/svg11.dtd">
<svg version="1.1" xmlns="http://www.w3.org/2000/svg" xmlns:xlink="http://www.w3.org/1999/xlink" viewBox="0 0 360.5 203.625">
 <g>
  <path d="M61.625 175.125L61.625 32.375C61.625 24.375 65.625 20.375 73.625 20.375L286.875 20.375C294.875 20.375 298.875 24.375 298.875 32.375L298.875 175.125Z" fill="white" fill-opacity="0.2125"/>
  <path d="M142.5 20.375L145.625 20.375C147.5 20.375 148.5 21.25 148.5 23.375L148.5 24.75C148.5 30 152 33.5 157.25 33.5L203.5 33.5C208.625 33.5 211.875 30 211.875 24.75L211.875 23.375C211.875 21.25 212.875 20.375 215 20.375L218.125 20.375L218.125 10L142.5 10ZM0 189.375C0 197.25 6.375 203.625 14.125 203.625L346.375 203.625C354.125 203.625 360.5 197.25 360.5 189.375C360.5 181.5 354.125 175.125 346.375 175.125L319 175.125L319 26.75C319 9.25 309.625 0.25 292.25 0.25L68.25 0.25C51.75 0.25 41.5 9.25 41.5 26.75L41.5 175.125L14.125 175.125C6.375 175.125 0 181.5 0 189.375ZM61.625 175.125L61.625 32.375C61.625 24.375 65.625 20.375 73.625 20.375L286.875 20.375C294.875 20.375 298.875 24.375 298.875 32.375L298.875 175.125Z" fill="white" fill-opacity="0.85"/>
 </g>
</svg>
